<mxfile host="app.diagrams.net" modified="2023-06-12T18:46:54.813Z" agent="Mozilla/5.0 (Windows NT 10.0; Win64; x64) AppleWebKit/537.36 (KHTML, like Gecko) Chrome/114.0.0.0 Safari/537.36 Edg/114.0.1823.41" etag="epSq48-XWEk3suNVTxLV" version="21.3.8" type="github">
  <diagram id="C5RBs43oDa-KdzZeNtuy" name="Page-1">
    <mxGraphModel dx="1707" dy="484" grid="1" gridSize="10" guides="1" tooltips="1" connect="1" arrows="1" fold="1" page="1" pageScale="1" pageWidth="827" pageHeight="1169" math="0" shadow="0">
      <root>
        <mxCell id="WIyWlLk6GJQsqaUBKTNV-0" />
        <mxCell id="WIyWlLk6GJQsqaUBKTNV-1" parent="WIyWlLk6GJQsqaUBKTNV-0" />
        <mxCell id="p5-lfuX05oYDoeHPT0H4-0" value="&lt;h2&gt;Inicio&lt;/h2&gt;" style="ellipse;whiteSpace=wrap;html=1;" parent="WIyWlLk6GJQsqaUBKTNV-1" vertex="1">
          <mxGeometry x="390" y="80" width="120" height="120" as="geometry" />
        </mxCell>
        <mxCell id="p5-lfuX05oYDoeHPT0H4-1" value="&lt;h1&gt;&lt;font style=&quot;font-size: 18px;&quot;&gt;PROCESO DE CERTIFICACIÓN&lt;/font&gt;&lt;/h1&gt;" style="text;html=1;strokeColor=none;fillColor=none;align=center;verticalAlign=middle;whiteSpace=wrap;rounded=0;" parent="WIyWlLk6GJQsqaUBKTNV-1" vertex="1">
          <mxGeometry y="30" width="830" height="30" as="geometry" />
        </mxCell>
        <mxCell id="p5-lfuX05oYDoeHPT0H4-3" value="" style="endArrow=classic;html=1;rounded=0;exitX=0.5;exitY=1;exitDx=0;exitDy=0;entryX=0.5;entryY=0;entryDx=0;entryDy=0;" parent="WIyWlLk6GJQsqaUBKTNV-1" source="p5-lfuX05oYDoeHPT0H4-0" target="p5-lfuX05oYDoeHPT0H4-13" edge="1">
          <mxGeometry width="50" height="50" relative="1" as="geometry">
            <mxPoint x="525" y="230" as="sourcePoint" />
            <mxPoint x="450" y="230" as="targetPoint" />
          </mxGeometry>
        </mxCell>
        <mxCell id="p5-lfuX05oYDoeHPT0H4-4" value="Realización del conflicto de interés&lt;br&gt;Cliente-Hacienda-Compecer" style="rhombus;whiteSpace=wrap;html=1;" parent="WIyWlLk6GJQsqaUBKTNV-1" vertex="1">
          <mxGeometry x="345" y="430" width="210" height="180" as="geometry" />
        </mxCell>
        <mxCell id="p5-lfuX05oYDoeHPT0H4-5" value="" style="endArrow=classic;html=1;rounded=0;exitX=0.5;exitY=1;exitDx=0;exitDy=0;entryX=0.5;entryY=0;entryDx=0;entryDy=0;fillColor=#d5e8d4;strokeColor=#82b366;" parent="WIyWlLk6GJQsqaUBKTNV-1" source="p5-lfuX05oYDoeHPT0H4-13" target="p5-lfuX05oYDoeHPT0H4-4" edge="1">
          <mxGeometry width="50" height="50" relative="1" as="geometry">
            <mxPoint x="450" y="300" as="sourcePoint" />
            <mxPoint x="270" y="300" as="targetPoint" />
          </mxGeometry>
        </mxCell>
        <mxCell id="p5-lfuX05oYDoeHPT0H4-6" value="" style="endArrow=classic;html=1;rounded=0;exitX=0;exitY=0.5;exitDx=0;exitDy=0;fillColor=#f8cecc;strokeColor=#b85450;" parent="WIyWlLk6GJQsqaUBKTNV-1" source="p5-lfuX05oYDoeHPT0H4-4" target="p5-lfuX05oYDoeHPT0H4-8" edge="1">
          <mxGeometry width="50" height="50" relative="1" as="geometry">
            <mxPoint x="200" y="450" as="sourcePoint" />
            <mxPoint x="180" y="385" as="targetPoint" />
          </mxGeometry>
        </mxCell>
        <mxCell id="p5-lfuX05oYDoeHPT0H4-7" value="Si se detecta conflicto" style="text;html=1;strokeColor=none;fillColor=none;align=center;verticalAlign=middle;whiteSpace=wrap;rounded=0;" parent="WIyWlLk6GJQsqaUBKTNV-1" vertex="1">
          <mxGeometry x="195" y="490" width="150" height="30" as="geometry" />
        </mxCell>
        <mxCell id="p5-lfuX05oYDoeHPT0H4-8" value="&lt;h2&gt;Termina el proceso&lt;/h2&gt;" style="ellipse;whiteSpace=wrap;html=1;" parent="WIyWlLk6GJQsqaUBKTNV-1" vertex="1">
          <mxGeometry x="50" y="479" width="120" height="85" as="geometry" />
        </mxCell>
        <mxCell id="p5-lfuX05oYDoeHPT0H4-11" value="" style="endArrow=classic;html=1;rounded=0;exitX=0.5;exitY=1;exitDx=0;exitDy=0;fillColor=#d5e8d4;strokeColor=#82b366;entryX=0.5;entryY=0;entryDx=0;entryDy=0;" parent="WIyWlLk6GJQsqaUBKTNV-1" source="p5-lfuX05oYDoeHPT0H4-4" target="p5-lfuX05oYDoeHPT0H4-43" edge="1">
          <mxGeometry width="50" height="50" relative="1" as="geometry">
            <mxPoint x="420" y="420" as="sourcePoint" />
            <mxPoint x="450" y="650" as="targetPoint" />
          </mxGeometry>
        </mxCell>
        <mxCell id="p5-lfuX05oYDoeHPT0H4-12" value="No se detectan conflictos" style="text;html=1;strokeColor=none;fillColor=none;align=center;verticalAlign=middle;whiteSpace=wrap;rounded=0;" parent="WIyWlLk6GJQsqaUBKTNV-1" vertex="1">
          <mxGeometry x="450" y="610" width="160" height="30" as="geometry" />
        </mxCell>
        <mxCell id="p5-lfuX05oYDoeHPT0H4-17" style="edgeStyle=orthogonalEdgeStyle;rounded=0;orthogonalLoop=1;jettySize=auto;html=1;exitX=0;exitY=0.5;exitDx=0;exitDy=0;entryX=0.5;entryY=0;entryDx=0;entryDy=0;fillColor=#f8cecc;strokeColor=#b85450;" parent="WIyWlLk6GJQsqaUBKTNV-1" source="p5-lfuX05oYDoeHPT0H4-13" target="p5-lfuX05oYDoeHPT0H4-8" edge="1">
          <mxGeometry relative="1" as="geometry" />
        </mxCell>
        <mxCell id="p5-lfuX05oYDoeHPT0H4-13" value="Realización de la solicitud por parte del cliente" style="rhombus;whiteSpace=wrap;html=1;" parent="WIyWlLk6GJQsqaUBKTNV-1" vertex="1">
          <mxGeometry x="325" y="230" width="250" height="170" as="geometry" />
        </mxCell>
        <mxCell id="p5-lfuX05oYDoeHPT0H4-16" value="Si se aprueba la solicitud" style="text;html=1;strokeColor=none;fillColor=none;align=center;verticalAlign=middle;whiteSpace=wrap;rounded=0;" parent="WIyWlLk6GJQsqaUBKTNV-1" vertex="1">
          <mxGeometry x="450" y="400" width="160" height="30" as="geometry" />
        </mxCell>
        <mxCell id="p5-lfuX05oYDoeHPT0H4-18" value="Si se rechaza la solicitud" style="text;html=1;strokeColor=none;fillColor=none;align=center;verticalAlign=middle;whiteSpace=wrap;rounded=0;" parent="WIyWlLk6GJQsqaUBKTNV-1" vertex="1">
          <mxGeometry x="130" y="290" width="180" height="30" as="geometry" />
        </mxCell>
        <mxCell id="p5-lfuX05oYDoeHPT0H4-21" style="edgeStyle=orthogonalEdgeStyle;rounded=0;orthogonalLoop=1;jettySize=auto;html=1;exitX=0;exitY=0.5;exitDx=0;exitDy=0;entryX=0.5;entryY=1;entryDx=0;entryDy=0;fillColor=#f8cecc;strokeColor=#b85450;" parent="WIyWlLk6GJQsqaUBKTNV-1" source="p5-lfuX05oYDoeHPT0H4-20" target="p5-lfuX05oYDoeHPT0H4-8" edge="1">
          <mxGeometry relative="1" as="geometry" />
        </mxCell>
        <mxCell id="p5-lfuX05oYDoeHPT0H4-23" style="edgeStyle=orthogonalEdgeStyle;rounded=0;orthogonalLoop=1;jettySize=auto;html=1;exitX=0.5;exitY=1;exitDx=0;exitDy=0;entryX=0.5;entryY=0;entryDx=0;entryDy=0;fillColor=#d5e8d4;strokeColor=#82b366;" parent="WIyWlLk6GJQsqaUBKTNV-1" source="p5-lfuX05oYDoeHPT0H4-20" target="p5-lfuX05oYDoeHPT0H4-22" edge="1">
          <mxGeometry relative="1" as="geometry" />
        </mxCell>
        <mxCell id="p5-lfuX05oYDoeHPT0H4-20" value="Se envía cotización al cliente" style="rhombus;whiteSpace=wrap;html=1;" parent="WIyWlLk6GJQsqaUBKTNV-1" vertex="1">
          <mxGeometry x="365" y="780" width="170" height="130" as="geometry" />
        </mxCell>
        <mxCell id="p5-lfuX05oYDoeHPT0H4-24" style="edgeStyle=orthogonalEdgeStyle;rounded=0;orthogonalLoop=1;jettySize=auto;html=1;entryX=0.5;entryY=1;entryDx=0;entryDy=0;fillColor=#f8cecc;strokeColor=#b85450;" parent="WIyWlLk6GJQsqaUBKTNV-1" source="p5-lfuX05oYDoeHPT0H4-22" target="p5-lfuX05oYDoeHPT0H4-8" edge="1">
          <mxGeometry relative="1" as="geometry" />
        </mxCell>
        <mxCell id="p5-lfuX05oYDoeHPT0H4-22" value="Se envía contrato al cliente" style="rhombus;whiteSpace=wrap;html=1;" parent="WIyWlLk6GJQsqaUBKTNV-1" vertex="1">
          <mxGeometry x="360" y="970" width="180" height="120" as="geometry" />
        </mxCell>
        <mxCell id="p5-lfuX05oYDoeHPT0H4-25" value="Si rechaza la cotización" style="text;html=1;strokeColor=none;fillColor=none;align=center;verticalAlign=middle;whiteSpace=wrap;rounded=0;" parent="WIyWlLk6GJQsqaUBKTNV-1" vertex="1">
          <mxGeometry x="220" y="820" width="150" height="30" as="geometry" />
        </mxCell>
        <mxCell id="p5-lfuX05oYDoeHPT0H4-27" value="Si no firma el contrato" style="text;html=1;strokeColor=none;fillColor=none;align=center;verticalAlign=middle;whiteSpace=wrap;rounded=0;" parent="WIyWlLk6GJQsqaUBKTNV-1" vertex="1">
          <mxGeometry x="219" y="1005" width="150" height="30" as="geometry" />
        </mxCell>
        <mxCell id="p5-lfuX05oYDoeHPT0H4-28" value="Si acepta la cotización" style="text;html=1;strokeColor=none;fillColor=none;align=center;verticalAlign=middle;whiteSpace=wrap;rounded=0;" parent="WIyWlLk6GJQsqaUBKTNV-1" vertex="1">
          <mxGeometry x="450" y="910" width="150" height="30" as="geometry" />
        </mxCell>
        <mxCell id="p5-lfuX05oYDoeHPT0H4-29" value="" style="endArrow=classic;html=1;rounded=0;exitX=0.5;exitY=1;exitDx=0;exitDy=0;fillColor=#d5e8d4;strokeColor=#82b366;entryX=0.5;entryY=0;entryDx=0;entryDy=0;" parent="WIyWlLk6GJQsqaUBKTNV-1" source="p5-lfuX05oYDoeHPT0H4-22" target="p5-lfuX05oYDoeHPT0H4-31" edge="1">
          <mxGeometry width="50" height="50" relative="1" as="geometry">
            <mxPoint x="330" y="1160" as="sourcePoint" />
            <mxPoint x="450" y="1150" as="targetPoint" />
          </mxGeometry>
        </mxCell>
        <mxCell id="p5-lfuX05oYDoeHPT0H4-30" value="Si firma el contrato" style="text;html=1;strokeColor=none;fillColor=none;align=center;verticalAlign=middle;whiteSpace=wrap;rounded=0;" parent="WIyWlLk6GJQsqaUBKTNV-1" vertex="1">
          <mxGeometry x="439" y="1090" width="150" height="30" as="geometry" />
        </mxCell>
        <mxCell id="p5-lfuX05oYDoeHPT0H4-33" style="edgeStyle=orthogonalEdgeStyle;rounded=0;orthogonalLoop=1;jettySize=auto;html=1;exitX=0.5;exitY=1;exitDx=0;exitDy=0;entryX=0.5;entryY=0;entryDx=0;entryDy=0;" parent="WIyWlLk6GJQsqaUBKTNV-1" source="p5-lfuX05oYDoeHPT0H4-31" target="p5-lfuX05oYDoeHPT0H4-32" edge="1">
          <mxGeometry relative="1" as="geometry" />
        </mxCell>
        <mxCell id="p5-lfuX05oYDoeHPT0H4-31" value="Gestión del pago" style="rounded=1;whiteSpace=wrap;html=1;" parent="WIyWlLk6GJQsqaUBKTNV-1" vertex="1">
          <mxGeometry x="390" y="1130" width="120" height="60" as="geometry" />
        </mxCell>
        <mxCell id="p5-lfuX05oYDoeHPT0H4-35" style="edgeStyle=orthogonalEdgeStyle;rounded=0;orthogonalLoop=1;jettySize=auto;html=1;entryX=0.5;entryY=0;entryDx=0;entryDy=0;" parent="WIyWlLk6GJQsqaUBKTNV-1" source="p5-lfuX05oYDoeHPT0H4-32" target="p5-lfuX05oYDoeHPT0H4-34" edge="1">
          <mxGeometry relative="1" as="geometry" />
        </mxCell>
        <mxCell id="p5-lfuX05oYDoeHPT0H4-32" value="Realización del programa de auditoría por parte del coordinador" style="rounded=1;whiteSpace=wrap;html=1;" parent="WIyWlLk6GJQsqaUBKTNV-1" vertex="1">
          <mxGeometry x="360" y="1219" width="180" height="70" as="geometry" />
        </mxCell>
        <mxCell id="p5-lfuX05oYDoeHPT0H4-37" style="edgeStyle=orthogonalEdgeStyle;rounded=0;orthogonalLoop=1;jettySize=auto;html=1;entryX=0.5;entryY=0;entryDx=0;entryDy=0;" parent="WIyWlLk6GJQsqaUBKTNV-1" source="p5-lfuX05oYDoeHPT0H4-34" target="p5-lfuX05oYDoeHPT0H4-36" edge="1">
          <mxGeometry relative="1" as="geometry" />
        </mxCell>
        <mxCell id="p5-lfuX05oYDoeHPT0H4-34" value="Selección de auditores" style="rounded=1;whiteSpace=wrap;html=1;" parent="WIyWlLk6GJQsqaUBKTNV-1" vertex="1">
          <mxGeometry x="370" y="1330" width="160" height="60" as="geometry" />
        </mxCell>
        <mxCell id="p5-lfuX05oYDoeHPT0H4-41" style="edgeStyle=orthogonalEdgeStyle;rounded=0;orthogonalLoop=1;jettySize=auto;html=1;entryX=1;entryY=0.5;entryDx=0;entryDy=0;fillColor=#f8cecc;strokeColor=#b85450;" parent="WIyWlLk6GJQsqaUBKTNV-1" source="p5-lfuX05oYDoeHPT0H4-36" target="p5-lfuX05oYDoeHPT0H4-40" edge="1">
          <mxGeometry relative="1" as="geometry" />
        </mxCell>
        <mxCell id="p5-lfuX05oYDoeHPT0H4-47" style="edgeStyle=orthogonalEdgeStyle;rounded=0;orthogonalLoop=1;jettySize=auto;html=1;entryX=0.5;entryY=0;entryDx=0;entryDy=0;" parent="WIyWlLk6GJQsqaUBKTNV-1" source="p5-lfuX05oYDoeHPT0H4-36" target="p5-lfuX05oYDoeHPT0H4-48" edge="1">
          <mxGeometry relative="1" as="geometry">
            <mxPoint x="450" y="1570" as="targetPoint" />
          </mxGeometry>
        </mxCell>
        <mxCell id="p5-lfuX05oYDoeHPT0H4-36" value="Conflicto de interés&lt;br&gt;Auditor-Cliente" style="rhombus;whiteSpace=wrap;html=1;" parent="WIyWlLk6GJQsqaUBKTNV-1" vertex="1">
          <mxGeometry x="370" y="1430" width="160" height="90" as="geometry" />
        </mxCell>
        <mxCell id="p5-lfuX05oYDoeHPT0H4-39" value="Si se encuentra conflicto" style="text;html=1;strokeColor=none;fillColor=none;align=center;verticalAlign=middle;whiteSpace=wrap;rounded=0;" parent="WIyWlLk6GJQsqaUBKTNV-1" vertex="1">
          <mxGeometry x="226" y="1451" width="151" height="30" as="geometry" />
        </mxCell>
        <mxCell id="p5-lfuX05oYDoeHPT0H4-45" style="edgeStyle=orthogonalEdgeStyle;rounded=0;orthogonalLoop=1;jettySize=auto;html=1;entryX=0.5;entryY=0;entryDx=0;entryDy=0;" parent="WIyWlLk6GJQsqaUBKTNV-1" source="p5-lfuX05oYDoeHPT0H4-40" target="p5-lfuX05oYDoeHPT0H4-36" edge="1">
          <mxGeometry relative="1" as="geometry">
            <Array as="points">
              <mxPoint x="130" y="1410" />
              <mxPoint x="450" y="1410" />
            </Array>
          </mxGeometry>
        </mxCell>
        <mxCell id="p5-lfuX05oYDoeHPT0H4-40" value="Reasignación de auditor" style="rounded=1;whiteSpace=wrap;html=1;" parent="WIyWlLk6GJQsqaUBKTNV-1" vertex="1">
          <mxGeometry x="60" y="1445" width="140" height="60" as="geometry" />
        </mxCell>
        <mxCell id="p5-lfuX05oYDoeHPT0H4-44" style="edgeStyle=orthogonalEdgeStyle;rounded=0;orthogonalLoop=1;jettySize=auto;html=1;entryX=0.5;entryY=0;entryDx=0;entryDy=0;" parent="WIyWlLk6GJQsqaUBKTNV-1" source="p5-lfuX05oYDoeHPT0H4-43" target="p5-lfuX05oYDoeHPT0H4-20" edge="1">
          <mxGeometry relative="1" as="geometry" />
        </mxCell>
        <mxCell id="p5-lfuX05oYDoeHPT0H4-43" value="Realización de la cotización en base al tabulador (Tiempo de auditorías y precios)" style="rounded=1;whiteSpace=wrap;html=1;" parent="WIyWlLk6GJQsqaUBKTNV-1" vertex="1">
          <mxGeometry x="310" y="670" width="280" height="60" as="geometry" />
        </mxCell>
        <mxCell id="p5-lfuX05oYDoeHPT0H4-55" style="edgeStyle=orthogonalEdgeStyle;rounded=0;orthogonalLoop=1;jettySize=auto;html=1;exitX=0;exitY=0.5;exitDx=0;exitDy=0;entryX=1;entryY=0.5;entryDx=0;entryDy=0;fillColor=#f8cecc;strokeColor=#b85450;" parent="WIyWlLk6GJQsqaUBKTNV-1" source="p5-lfuX05oYDoeHPT0H4-48" target="p5-lfuX05oYDoeHPT0H4-50" edge="1">
          <mxGeometry relative="1" as="geometry" />
        </mxCell>
        <mxCell id="p5-lfuX05oYDoeHPT0H4-62" style="edgeStyle=orthogonalEdgeStyle;rounded=0;orthogonalLoop=1;jettySize=auto;html=1;fillColor=#d5e8d4;strokeColor=#82b366;" parent="WIyWlLk6GJQsqaUBKTNV-1" source="p5-lfuX05oYDoeHPT0H4-48" target="p5-lfuX05oYDoeHPT0H4-61" edge="1">
          <mxGeometry relative="1" as="geometry" />
        </mxCell>
        <mxCell id="p5-lfuX05oYDoeHPT0H4-48" value="Documentación" style="rhombus;whiteSpace=wrap;html=1;" parent="WIyWlLk6GJQsqaUBKTNV-1" vertex="1">
          <mxGeometry x="490" y="1653" width="140" height="80" as="geometry" />
        </mxCell>
        <mxCell id="p5-lfuX05oYDoeHPT0H4-54" style="edgeStyle=orthogonalEdgeStyle;rounded=0;orthogonalLoop=1;jettySize=auto;html=1;entryX=0.5;entryY=1;entryDx=0;entryDy=0;" parent="WIyWlLk6GJQsqaUBKTNV-1" source="p5-lfuX05oYDoeHPT0H4-50" target="p5-lfuX05oYDoeHPT0H4-51" edge="1">
          <mxGeometry relative="1" as="geometry" />
        </mxCell>
        <mxCell id="p5-lfuX05oYDoeHPT0H4-50" value="Reprogramación del programa" style="rounded=1;whiteSpace=wrap;html=1;" parent="WIyWlLk6GJQsqaUBKTNV-1" vertex="1">
          <mxGeometry x="40" y="1673" width="180" height="40" as="geometry" />
        </mxCell>
        <mxCell id="p5-lfuX05oYDoeHPT0H4-53" style="edgeStyle=orthogonalEdgeStyle;rounded=0;orthogonalLoop=1;jettySize=auto;html=1;entryX=0.5;entryY=1;entryDx=0;entryDy=0;fillColor=#f8cecc;strokeColor=#b85450;" parent="WIyWlLk6GJQsqaUBKTNV-1" source="p5-lfuX05oYDoeHPT0H4-51" target="p5-lfuX05oYDoeHPT0H4-40" edge="1">
          <mxGeometry relative="1" as="geometry" />
        </mxCell>
        <mxCell id="p5-lfuX05oYDoeHPT0H4-60" style="edgeStyle=orthogonalEdgeStyle;rounded=0;orthogonalLoop=1;jettySize=auto;html=1;entryX=0.5;entryY=0;entryDx=0;entryDy=0;" parent="WIyWlLk6GJQsqaUBKTNV-1" source="p5-lfuX05oYDoeHPT0H4-51" target="p5-lfuX05oYDoeHPT0H4-48" edge="1">
          <mxGeometry relative="1" as="geometry" />
        </mxCell>
        <mxCell id="p5-lfuX05oYDoeHPT0H4-51" value="Verificación del contrato de auditores" style="rhombus;whiteSpace=wrap;html=1;" parent="WIyWlLk6GJQsqaUBKTNV-1" vertex="1">
          <mxGeometry x="7" y="1547" width="246" height="80" as="geometry" />
        </mxCell>
        <mxCell id="p5-lfuX05oYDoeHPT0H4-56" value="Si no entrega documentación a tiempo" style="text;html=1;strokeColor=none;fillColor=none;align=center;verticalAlign=middle;whiteSpace=wrap;rounded=0;" parent="WIyWlLk6GJQsqaUBKTNV-1" vertex="1">
          <mxGeometry x="260" y="1670" width="240" height="30" as="geometry" />
        </mxCell>
        <mxCell id="p5-lfuX05oYDoeHPT0H4-57" value="Si el auditor ya no puede realizar la auditoría" style="text;html=1;strokeColor=none;fillColor=none;align=center;verticalAlign=middle;whiteSpace=wrap;rounded=0;" parent="WIyWlLk6GJQsqaUBKTNV-1" vertex="1">
          <mxGeometry x="120" y="1517" width="270" height="30" as="geometry" />
        </mxCell>
        <mxCell id="p5-lfuX05oYDoeHPT0H4-65" style="edgeStyle=orthogonalEdgeStyle;rounded=0;orthogonalLoop=1;jettySize=auto;html=1;entryX=1;entryY=0.5;entryDx=0;entryDy=0;fillColor=#f8cecc;strokeColor=#b85450;" parent="WIyWlLk6GJQsqaUBKTNV-1" source="p5-lfuX05oYDoeHPT0H4-61" target="p5-lfuX05oYDoeHPT0H4-64" edge="1">
          <mxGeometry relative="1" as="geometry" />
        </mxCell>
        <mxCell id="p5-lfuX05oYDoeHPT0H4-76" style="edgeStyle=orthogonalEdgeStyle;rounded=0;orthogonalLoop=1;jettySize=auto;html=1;entryX=0.5;entryY=0;entryDx=0;entryDy=0;fillColor=#d5e8d4;strokeColor=#82b366;" parent="WIyWlLk6GJQsqaUBKTNV-1" source="p5-lfuX05oYDoeHPT0H4-61" target="p5-lfuX05oYDoeHPT0H4-74" edge="1">
          <mxGeometry relative="1" as="geometry" />
        </mxCell>
        <mxCell id="p5-lfuX05oYDoeHPT0H4-61" value="Realización del plan de auditoría por parte del auditor" style="rhombus;whiteSpace=wrap;html=1;" parent="WIyWlLk6GJQsqaUBKTNV-1" vertex="1">
          <mxGeometry x="400" y="1780" width="320" height="100" as="geometry" />
        </mxCell>
        <mxCell id="p5-lfuX05oYDoeHPT0H4-63" value="Si entrega documentación a tiempo" style="text;html=1;strokeColor=none;fillColor=none;align=center;verticalAlign=middle;whiteSpace=wrap;rounded=0;" parent="WIyWlLk6GJQsqaUBKTNV-1" vertex="1">
          <mxGeometry x="540" y="1733" width="240" height="30" as="geometry" />
        </mxCell>
        <mxCell id="p5-lfuX05oYDoeHPT0H4-66" style="edgeStyle=orthogonalEdgeStyle;rounded=0;orthogonalLoop=1;jettySize=auto;html=1;entryX=0.5;entryY=1;entryDx=0;entryDy=0;fillColor=#f8cecc;strokeColor=#b85450;" parent="WIyWlLk6GJQsqaUBKTNV-1" source="p5-lfuX05oYDoeHPT0H4-64" target="p5-lfuX05oYDoeHPT0H4-50" edge="1">
          <mxGeometry relative="1" as="geometry" />
        </mxCell>
        <mxCell id="p5-lfuX05oYDoeHPT0H4-77" style="edgeStyle=orthogonalEdgeStyle;rounded=0;orthogonalLoop=1;jettySize=auto;html=1;entryX=0.5;entryY=0;entryDx=0;entryDy=0;fillColor=#d5e8d4;strokeColor=#82b366;" parent="WIyWlLk6GJQsqaUBKTNV-1" source="p5-lfuX05oYDoeHPT0H4-64" target="p5-lfuX05oYDoeHPT0H4-74" edge="1">
          <mxGeometry relative="1" as="geometry">
            <Array as="points">
              <mxPoint x="130" y="1890" />
              <mxPoint x="560" y="1890" />
            </Array>
          </mxGeometry>
        </mxCell>
        <mxCell id="p5-lfuX05oYDoeHPT0H4-64" value="Se modifica el plan de auditoría" style="rhombus;whiteSpace=wrap;html=1;" parent="WIyWlLk6GJQsqaUBKTNV-1" vertex="1">
          <mxGeometry x="30" y="1790" width="200" height="80" as="geometry" />
        </mxCell>
        <mxCell id="p5-lfuX05oYDoeHPT0H4-67" value="Si se modifican las fechas" style="text;html=1;strokeColor=none;fillColor=none;align=center;verticalAlign=middle;whiteSpace=wrap;rounded=0;" parent="WIyWlLk6GJQsqaUBKTNV-1" vertex="1">
          <mxGeometry x="120" y="1733" width="170" height="30" as="geometry" />
        </mxCell>
        <mxCell id="p5-lfuX05oYDoeHPT0H4-68" value="Si lo rechaza el cliente" style="text;html=1;strokeColor=none;fillColor=none;align=center;verticalAlign=middle;whiteSpace=wrap;rounded=0;" parent="WIyWlLk6GJQsqaUBKTNV-1" vertex="1">
          <mxGeometry x="272" y="1808" width="130" height="30" as="geometry" />
        </mxCell>
        <mxCell id="p5-lfuX05oYDoeHPT0H4-79" style="edgeStyle=orthogonalEdgeStyle;rounded=0;orthogonalLoop=1;jettySize=auto;html=1;entryX=0.5;entryY=0;entryDx=0;entryDy=0;" parent="WIyWlLk6GJQsqaUBKTNV-1" source="p5-lfuX05oYDoeHPT0H4-69" target="p5-lfuX05oYDoeHPT0H4-73" edge="1">
          <mxGeometry relative="1" as="geometry" />
        </mxCell>
        <mxCell id="p5-lfuX05oYDoeHPT0H4-69" value="Realización de la auditoría de etapa 1" style="rounded=1;whiteSpace=wrap;html=1;" parent="WIyWlLk6GJQsqaUBKTNV-1" vertex="1">
          <mxGeometry x="450" y="2070" width="220" height="40" as="geometry" />
        </mxCell>
        <mxCell id="p5-lfuX05oYDoeHPT0H4-71" value="Si lo acepta el cliente" style="text;html=1;strokeColor=none;fillColor=none;align=center;verticalAlign=middle;whiteSpace=wrap;rounded=0;" parent="WIyWlLk6GJQsqaUBKTNV-1" vertex="1">
          <mxGeometry x="565" y="1890" width="135" height="30" as="geometry" />
        </mxCell>
        <mxCell id="p5-lfuX05oYDoeHPT0H4-81" style="edgeStyle=orthogonalEdgeStyle;rounded=0;orthogonalLoop=1;jettySize=auto;html=1;entryX=0.5;entryY=0;entryDx=0;entryDy=0;" parent="WIyWlLk6GJQsqaUBKTNV-1" source="p5-lfuX05oYDoeHPT0H4-73" target="p5-lfuX05oYDoeHPT0H4-80" edge="1">
          <mxGeometry relative="1" as="geometry" />
        </mxCell>
        <mxCell id="p5-lfuX05oYDoeHPT0H4-73" value="Registro de los hallazgos ( Si aplica se hace uso del formato del registro de hallazgos.) y cumplimientos" style="rounded=1;whiteSpace=wrap;html=1;" parent="WIyWlLk6GJQsqaUBKTNV-1" vertex="1">
          <mxGeometry x="270" y="2150" width="580" height="60" as="geometry" />
        </mxCell>
        <mxCell id="p5-lfuX05oYDoeHPT0H4-78" style="edgeStyle=orthogonalEdgeStyle;rounded=0;orthogonalLoop=1;jettySize=auto;html=1;entryX=0.5;entryY=0;entryDx=0;entryDy=0;fillColor=#d5e8d4;strokeColor=#82b366;" parent="WIyWlLk6GJQsqaUBKTNV-1" source="p5-lfuX05oYDoeHPT0H4-74" target="p5-lfuX05oYDoeHPT0H4-69" edge="1">
          <mxGeometry relative="1" as="geometry" />
        </mxCell>
        <mxCell id="OEueLyYYsHDINbtBPgIN-18" style="edgeStyle=orthogonalEdgeStyle;rounded=0;orthogonalLoop=1;jettySize=auto;html=1;exitX=1;exitY=0.5;exitDx=0;exitDy=0;entryX=1;entryY=0.5;entryDx=0;entryDy=0;fillColor=#f8cecc;strokeColor=#b85450;" edge="1" parent="WIyWlLk6GJQsqaUBKTNV-1" source="p5-lfuX05oYDoeHPT0H4-74" target="OEueLyYYsHDINbtBPgIN-5">
          <mxGeometry relative="1" as="geometry">
            <mxPoint x="892.3529411764706" y="2520" as="targetPoint" />
            <Array as="points">
              <mxPoint x="892" y="1980" />
              <mxPoint x="892" y="2520" />
            </Array>
          </mxGeometry>
        </mxCell>
        <mxCell id="p5-lfuX05oYDoeHPT0H4-74" value="Si es Certificación inicial o recertificación" style="rhombus;whiteSpace=wrap;html=1;" parent="WIyWlLk6GJQsqaUBKTNV-1" vertex="1">
          <mxGeometry x="460" y="1930" width="200" height="100" as="geometry" />
        </mxCell>
        <mxCell id="p5-lfuX05oYDoeHPT0H4-84" style="edgeStyle=orthogonalEdgeStyle;rounded=0;orthogonalLoop=1;jettySize=auto;html=1;exitX=0;exitY=0.5;exitDx=0;exitDy=0;entryX=1;entryY=0.5;entryDx=0;entryDy=0;fillColor=#f8cecc;strokeColor=#b85450;" parent="WIyWlLk6GJQsqaUBKTNV-1" source="p5-lfuX05oYDoeHPT0H4-80" target="p5-lfuX05oYDoeHPT0H4-83" edge="1">
          <mxGeometry relative="1" as="geometry" />
        </mxCell>
        <mxCell id="OEueLyYYsHDINbtBPgIN-22" style="edgeStyle=orthogonalEdgeStyle;rounded=0;orthogonalLoop=1;jettySize=auto;html=1;entryX=0.5;entryY=0;entryDx=0;entryDy=0;fillColor=#d5e8d4;strokeColor=#82b366;" edge="1" parent="WIyWlLk6GJQsqaUBKTNV-1" source="p5-lfuX05oYDoeHPT0H4-80" target="OEueLyYYsHDINbtBPgIN-5">
          <mxGeometry relative="1" as="geometry" />
        </mxCell>
        <mxCell id="p5-lfuX05oYDoeHPT0H4-80" value="Realización del reporte de auditoría etapa 1" style="rhombus;whiteSpace=wrap;html=1;" parent="WIyWlLk6GJQsqaUBKTNV-1" vertex="1">
          <mxGeometry x="470" y="2250" width="180" height="120" as="geometry" />
        </mxCell>
        <mxCell id="OEueLyYYsHDINbtBPgIN-3" style="edgeStyle=orthogonalEdgeStyle;rounded=0;orthogonalLoop=1;jettySize=auto;html=1;entryX=0.5;entryY=0;entryDx=0;entryDy=0;fillColor=#d5e8d4;strokeColor=#82b366;" edge="1" parent="WIyWlLk6GJQsqaUBKTNV-1" source="p5-lfuX05oYDoeHPT0H4-83" target="OEueLyYYsHDINbtBPgIN-2">
          <mxGeometry relative="1" as="geometry" />
        </mxCell>
        <mxCell id="OEueLyYYsHDINbtBPgIN-12" style="edgeStyle=orthogonalEdgeStyle;rounded=0;orthogonalLoop=1;jettySize=auto;html=1;entryX=0.5;entryY=1;entryDx=0;entryDy=0;fillColor=#f8cecc;strokeColor=#b85450;" edge="1" parent="WIyWlLk6GJQsqaUBKTNV-1" source="p5-lfuX05oYDoeHPT0H4-83" target="OEueLyYYsHDINbtBPgIN-11">
          <mxGeometry relative="1" as="geometry" />
        </mxCell>
        <mxCell id="p5-lfuX05oYDoeHPT0H4-83" value="El cliente sube los documentos de gestión de No conformidades&lt;br&gt;(Planes de acción, análisis causa raíz y evidencias de implementación)" style="shape=hexagon;perimeter=hexagonPerimeter2;whiteSpace=wrap;html=1;fixedSize=1;" parent="WIyWlLk6GJQsqaUBKTNV-1" vertex="1">
          <mxGeometry x="48" y="2250" width="222" height="120" as="geometry" />
        </mxCell>
        <mxCell id="p5-lfuX05oYDoeHPT0H4-85" value="Si se detectan No conformidades" style="text;html=1;strokeColor=none;fillColor=none;align=center;verticalAlign=middle;whiteSpace=wrap;rounded=0;" parent="WIyWlLk6GJQsqaUBKTNV-1" vertex="1">
          <mxGeometry x="280" y="2286" width="200" height="30" as="geometry" />
        </mxCell>
        <mxCell id="OEueLyYYsHDINbtBPgIN-0" value="Si no cambian las fechas y lo acepta el cliente" style="text;html=1;strokeColor=none;fillColor=none;align=center;verticalAlign=middle;whiteSpace=wrap;rounded=0;" vertex="1" parent="WIyWlLk6GJQsqaUBKTNV-1">
          <mxGeometry x="210" y="1867" width="260" height="30" as="geometry" />
        </mxCell>
        <mxCell id="OEueLyYYsHDINbtBPgIN-1" value="Si" style="text;html=1;strokeColor=none;fillColor=none;align=center;verticalAlign=middle;whiteSpace=wrap;rounded=0;" vertex="1" parent="WIyWlLk6GJQsqaUBKTNV-1">
          <mxGeometry x="555" y="2030" width="35" height="30" as="geometry" />
        </mxCell>
        <mxCell id="OEueLyYYsHDINbtBPgIN-6" style="edgeStyle=orthogonalEdgeStyle;rounded=0;orthogonalLoop=1;jettySize=auto;html=1;fillColor=#d5e8d4;strokeColor=#82b366;" edge="1" parent="WIyWlLk6GJQsqaUBKTNV-1" source="OEueLyYYsHDINbtBPgIN-2" target="OEueLyYYsHDINbtBPgIN-5">
          <mxGeometry relative="1" as="geometry" />
        </mxCell>
        <mxCell id="OEueLyYYsHDINbtBPgIN-9" style="edgeStyle=orthogonalEdgeStyle;rounded=0;orthogonalLoop=1;jettySize=auto;html=1;entryX=0;entryY=0.5;entryDx=0;entryDy=0;fillColor=#f8cecc;strokeColor=#b85450;" edge="1" parent="WIyWlLk6GJQsqaUBKTNV-1" source="OEueLyYYsHDINbtBPgIN-2" target="OEueLyYYsHDINbtBPgIN-2">
          <mxGeometry relative="1" as="geometry">
            <mxPoint x="30" y="2580" as="targetPoint" />
            <Array as="points">
              <mxPoint x="159" y="2670" />
              <mxPoint x="20" y="2670" />
            </Array>
          </mxGeometry>
        </mxCell>
        <mxCell id="OEueLyYYsHDINbtBPgIN-2" value="Se realiza la revisión de los hallazgos del auditor" style="rhombus;whiteSpace=wrap;html=1;" vertex="1" parent="WIyWlLk6GJQsqaUBKTNV-1">
          <mxGeometry x="20" y="2460" width="278" height="120" as="geometry" />
        </mxCell>
        <mxCell id="OEueLyYYsHDINbtBPgIN-4" value="Si sube los documentos a tiempo" style="text;html=1;strokeColor=none;fillColor=none;align=center;verticalAlign=middle;whiteSpace=wrap;rounded=0;" vertex="1" parent="WIyWlLk6GJQsqaUBKTNV-1">
          <mxGeometry x="145" y="2410" width="220" height="30" as="geometry" />
        </mxCell>
        <mxCell id="OEueLyYYsHDINbtBPgIN-21" style="edgeStyle=orthogonalEdgeStyle;rounded=0;orthogonalLoop=1;jettySize=auto;html=1;entryX=0.5;entryY=0;entryDx=0;entryDy=0;" edge="1" parent="WIyWlLk6GJQsqaUBKTNV-1" source="OEueLyYYsHDINbtBPgIN-5" target="OEueLyYYsHDINbtBPgIN-20">
          <mxGeometry relative="1" as="geometry" />
        </mxCell>
        <mxCell id="OEueLyYYsHDINbtBPgIN-5" value="Realización de auditoría etapa (2 o In Situ)" style="rounded=1;whiteSpace=wrap;html=1;" vertex="1" parent="WIyWlLk6GJQsqaUBKTNV-1">
          <mxGeometry x="430" y="2490" width="260" height="60" as="geometry" />
        </mxCell>
        <mxCell id="OEueLyYYsHDINbtBPgIN-7" value="Se aceptan los documentos" style="text;html=1;strokeColor=none;fillColor=none;align=center;verticalAlign=middle;whiteSpace=wrap;rounded=0;" vertex="1" parent="WIyWlLk6GJQsqaUBKTNV-1">
          <mxGeometry x="243" y="2492" width="220" height="30" as="geometry" />
        </mxCell>
        <mxCell id="OEueLyYYsHDINbtBPgIN-10" value="Si se rechazan, se le amplía 10 días hábiles al cliente para subir nuevamente los documentos, máximo de 3 intentos" style="text;html=1;strokeColor=none;fillColor=none;align=center;verticalAlign=middle;whiteSpace=wrap;rounded=0;" vertex="1" parent="WIyWlLk6GJQsqaUBKTNV-1">
          <mxGeometry x="155" y="2620" width="230" height="30" as="geometry" />
        </mxCell>
        <mxCell id="OEueLyYYsHDINbtBPgIN-14" style="edgeStyle=orthogonalEdgeStyle;rounded=0;orthogonalLoop=1;jettySize=auto;html=1;entryX=0;entryY=0.5;entryDx=0;entryDy=0;fillColor=#d5e8d4;strokeColor=#82b366;" edge="1" parent="WIyWlLk6GJQsqaUBKTNV-1" source="OEueLyYYsHDINbtBPgIN-11" target="OEueLyYYsHDINbtBPgIN-2">
          <mxGeometry relative="1" as="geometry">
            <mxPoint x="-80" y="2520" as="targetPoint" />
            <Array as="points">
              <mxPoint x="-90" y="2100" />
              <mxPoint x="-90" y="2520" />
            </Array>
          </mxGeometry>
        </mxCell>
        <mxCell id="OEueLyYYsHDINbtBPgIN-16" style="edgeStyle=orthogonalEdgeStyle;rounded=0;orthogonalLoop=1;jettySize=auto;html=1;entryX=0;entryY=0.5;entryDx=0;entryDy=0;fillColor=#f8cecc;strokeColor=#b85450;" edge="1" parent="WIyWlLk6GJQsqaUBKTNV-1" source="OEueLyYYsHDINbtBPgIN-11" target="p5-lfuX05oYDoeHPT0H4-8">
          <mxGeometry relative="1" as="geometry">
            <mxPoint x="-30" y="1370" as="targetPoint" />
            <Array as="points">
              <mxPoint x="159" y="1940" />
              <mxPoint x="-30" y="1940" />
              <mxPoint x="-30" y="521" />
            </Array>
          </mxGeometry>
        </mxCell>
        <mxCell id="OEueLyYYsHDINbtBPgIN-11" value="Se contacta al cliente para que solicite carta prórroga donde pueda ampliar hasta 15 días hábiles para subir sus documentos" style="rhombus;whiteSpace=wrap;html=1;" vertex="1" parent="WIyWlLk6GJQsqaUBKTNV-1">
          <mxGeometry x="-40" y="2000" width="398" height="200" as="geometry" />
        </mxCell>
        <mxCell id="OEueLyYYsHDINbtBPgIN-13" value="Si no sube los documentos a tiempo" style="text;html=1;strokeColor=none;fillColor=none;align=center;verticalAlign=middle;whiteSpace=wrap;rounded=0;" vertex="1" parent="WIyWlLk6GJQsqaUBKTNV-1">
          <mxGeometry x="-50" y="2200" width="220" height="30" as="geometry" />
        </mxCell>
        <mxCell id="OEueLyYYsHDINbtBPgIN-15" value="El cliente sube los documentos dentro del nuevo plazo" style="text;html=1;strokeColor=none;fillColor=none;align=center;verticalAlign=middle;whiteSpace=wrap;rounded=0;" vertex="1" parent="WIyWlLk6GJQsqaUBKTNV-1">
          <mxGeometry x="-240" y="2120" width="160" height="55" as="geometry" />
        </mxCell>
        <mxCell id="OEueLyYYsHDINbtBPgIN-17" value="Si no solicita carta prórroga o no sube los documentos dentro del nuevo plazo" style="text;html=1;strokeColor=none;fillColor=none;align=center;verticalAlign=middle;whiteSpace=wrap;rounded=0;" vertex="1" parent="WIyWlLk6GJQsqaUBKTNV-1">
          <mxGeometry x="-12" y="1919" width="400" height="30" as="geometry" />
        </mxCell>
        <mxCell id="OEueLyYYsHDINbtBPgIN-19" value="No (Vigilancias)" style="text;html=1;strokeColor=none;fillColor=none;align=center;verticalAlign=middle;whiteSpace=wrap;rounded=0;" vertex="1" parent="WIyWlLk6GJQsqaUBKTNV-1">
          <mxGeometry x="670" y="1949" width="100" height="30" as="geometry" />
        </mxCell>
        <mxCell id="OEueLyYYsHDINbtBPgIN-25" style="edgeStyle=orthogonalEdgeStyle;rounded=0;orthogonalLoop=1;jettySize=auto;html=1;" edge="1" parent="WIyWlLk6GJQsqaUBKTNV-1" source="OEueLyYYsHDINbtBPgIN-20" target="OEueLyYYsHDINbtBPgIN-24">
          <mxGeometry relative="1" as="geometry" />
        </mxCell>
        <mxCell id="OEueLyYYsHDINbtBPgIN-20" value="Registro de los hallazgos ( Si aplica se hace uso del formato del registro de hallazgos.) y cumplimientos" style="rounded=1;whiteSpace=wrap;html=1;" vertex="1" parent="WIyWlLk6GJQsqaUBKTNV-1">
          <mxGeometry x="270" y="2670" width="580" height="60" as="geometry" />
        </mxCell>
        <mxCell id="OEueLyYYsHDINbtBPgIN-23" value="Si no se detectan No conformidades" style="text;html=1;strokeColor=none;fillColor=none;align=center;verticalAlign=middle;whiteSpace=wrap;rounded=0;" vertex="1" parent="WIyWlLk6GJQsqaUBKTNV-1">
          <mxGeometry x="560" y="2380" width="200" height="30" as="geometry" />
        </mxCell>
        <mxCell id="OEueLyYYsHDINbtBPgIN-44" style="edgeStyle=orthogonalEdgeStyle;rounded=0;orthogonalLoop=1;jettySize=auto;html=1;entryX=0.5;entryY=0;entryDx=0;entryDy=0;fillColor=#d5e8d4;strokeColor=#82b366;" edge="1" parent="WIyWlLk6GJQsqaUBKTNV-1" source="OEueLyYYsHDINbtBPgIN-24" target="OEueLyYYsHDINbtBPgIN-43">
          <mxGeometry relative="1" as="geometry" />
        </mxCell>
        <mxCell id="OEueLyYYsHDINbtBPgIN-24" value="Realización del reporte de auditoría etapa 2" style="rhombus;whiteSpace=wrap;html=1;" vertex="1" parent="WIyWlLk6GJQsqaUBKTNV-1">
          <mxGeometry x="470" y="2760" width="180" height="120" as="geometry" />
        </mxCell>
        <mxCell id="OEueLyYYsHDINbtBPgIN-26" style="edgeStyle=orthogonalEdgeStyle;rounded=0;orthogonalLoop=1;jettySize=auto;html=1;exitX=0;exitY=0.5;exitDx=0;exitDy=0;fillColor=#f8cecc;strokeColor=#b85450;" edge="1" parent="WIyWlLk6GJQsqaUBKTNV-1" source="OEueLyYYsHDINbtBPgIN-24">
          <mxGeometry relative="1" as="geometry">
            <mxPoint x="448" y="2814" as="sourcePoint" />
            <mxPoint x="280" y="2820" as="targetPoint" />
          </mxGeometry>
        </mxCell>
        <mxCell id="OEueLyYYsHDINbtBPgIN-27" style="edgeStyle=orthogonalEdgeStyle;rounded=0;orthogonalLoop=1;jettySize=auto;html=1;entryX=0.5;entryY=1;entryDx=0;entryDy=0;fillColor=#f8cecc;strokeColor=#b85450;" edge="1" parent="WIyWlLk6GJQsqaUBKTNV-1" source="OEueLyYYsHDINbtBPgIN-28" target="OEueLyYYsHDINbtBPgIN-31">
          <mxGeometry relative="1" as="geometry" />
        </mxCell>
        <mxCell id="OEueLyYYsHDINbtBPgIN-37" style="edgeStyle=orthogonalEdgeStyle;rounded=0;orthogonalLoop=1;jettySize=auto;html=1;entryX=0.5;entryY=0;entryDx=0;entryDy=0;fillColor=#d5e8d4;strokeColor=#82b366;" edge="1" parent="WIyWlLk6GJQsqaUBKTNV-1" source="OEueLyYYsHDINbtBPgIN-28" target="OEueLyYYsHDINbtBPgIN-36">
          <mxGeometry relative="1" as="geometry" />
        </mxCell>
        <mxCell id="OEueLyYYsHDINbtBPgIN-28" value="El cliente sube los documentos de gestión de No conformidades&lt;br&gt;(Planes de acción, análisis causa raíz y evidencias de implementación)" style="shape=hexagon;perimeter=hexagonPerimeter2;whiteSpace=wrap;html=1;fixedSize=1;" vertex="1" parent="WIyWlLk6GJQsqaUBKTNV-1">
          <mxGeometry x="58" y="2760" width="222" height="120" as="geometry" />
        </mxCell>
        <mxCell id="OEueLyYYsHDINbtBPgIN-29" value="Si se detectan No conformidades" style="text;html=1;strokeColor=none;fillColor=none;align=center;verticalAlign=middle;whiteSpace=wrap;rounded=0;" vertex="1" parent="WIyWlLk6GJQsqaUBKTNV-1">
          <mxGeometry x="284" y="2793" width="200" height="30" as="geometry" />
        </mxCell>
        <mxCell id="OEueLyYYsHDINbtBPgIN-30" value="Si sube los documentos a tiempo" style="text;html=1;strokeColor=none;fillColor=none;align=center;verticalAlign=middle;whiteSpace=wrap;rounded=0;" vertex="1" parent="WIyWlLk6GJQsqaUBKTNV-1">
          <mxGeometry x="155" y="2900" width="220" height="30" as="geometry" />
        </mxCell>
        <mxCell id="OEueLyYYsHDINbtBPgIN-35" style="edgeStyle=orthogonalEdgeStyle;rounded=0;orthogonalLoop=1;jettySize=auto;html=1;exitX=0.5;exitY=0;exitDx=0;exitDy=0;fillColor=#f8cecc;strokeColor=#b85450;entryX=0;entryY=0.5;entryDx=0;entryDy=0;" edge="1" parent="WIyWlLk6GJQsqaUBKTNV-1" source="OEueLyYYsHDINbtBPgIN-31" target="p5-lfuX05oYDoeHPT0H4-8">
          <mxGeometry relative="1" as="geometry">
            <mxPoint x="-240" y="520" as="targetPoint" />
            <Array as="points">
              <mxPoint x="-192" y="2550" />
              <mxPoint x="-240" y="2550" />
              <mxPoint x="-240" y="521" />
            </Array>
          </mxGeometry>
        </mxCell>
        <mxCell id="OEueLyYYsHDINbtBPgIN-38" style="edgeStyle=orthogonalEdgeStyle;rounded=0;orthogonalLoop=1;jettySize=auto;html=1;entryX=0;entryY=0.5;entryDx=0;entryDy=0;fillColor=#d5e8d4;strokeColor=#82b366;" edge="1" parent="WIyWlLk6GJQsqaUBKTNV-1" source="OEueLyYYsHDINbtBPgIN-31" target="OEueLyYYsHDINbtBPgIN-36">
          <mxGeometry relative="1" as="geometry">
            <Array as="points">
              <mxPoint x="-440" y="2700" />
              <mxPoint x="-440" y="2990" />
            </Array>
          </mxGeometry>
        </mxCell>
        <mxCell id="OEueLyYYsHDINbtBPgIN-31" value="Se contacta al cliente para que solicite carta prórroga donde pueda ampliar hasta 15 días hábiles para subir sus documentos" style="rhombus;whiteSpace=wrap;html=1;" vertex="1" parent="WIyWlLk6GJQsqaUBKTNV-1">
          <mxGeometry x="-391" y="2600" width="398" height="200" as="geometry" />
        </mxCell>
        <mxCell id="OEueLyYYsHDINbtBPgIN-32" value="Si no sube los documentos a tiempo" style="text;html=1;strokeColor=none;fillColor=none;align=center;verticalAlign=middle;whiteSpace=wrap;rounded=0;" vertex="1" parent="WIyWlLk6GJQsqaUBKTNV-1">
          <mxGeometry x="-154" y="2797" width="220" height="30" as="geometry" />
        </mxCell>
        <mxCell id="OEueLyYYsHDINbtBPgIN-33" value="El cliente sube los documentos dentro del nuevo plazo" style="text;html=1;strokeColor=none;fillColor=none;align=center;verticalAlign=middle;whiteSpace=wrap;rounded=0;" vertex="1" parent="WIyWlLk6GJQsqaUBKTNV-1">
          <mxGeometry x="-520" y="2650" width="160" height="55" as="geometry" />
        </mxCell>
        <mxCell id="OEueLyYYsHDINbtBPgIN-34" value="Si no solicita carta prórroga o no sube los documentos dentro del nuevo plazo" style="text;html=1;strokeColor=none;fillColor=none;align=center;verticalAlign=middle;whiteSpace=wrap;rounded=0;" vertex="1" parent="WIyWlLk6GJQsqaUBKTNV-1">
          <mxGeometry x="-435" y="2522" width="248" height="100" as="geometry" />
        </mxCell>
        <mxCell id="OEueLyYYsHDINbtBPgIN-40" style="edgeStyle=orthogonalEdgeStyle;rounded=0;orthogonalLoop=1;jettySize=auto;html=1;entryX=0;entryY=0.5;entryDx=0;entryDy=0;fillColor=#f8cecc;strokeColor=#b85450;" edge="1" parent="WIyWlLk6GJQsqaUBKTNV-1" source="OEueLyYYsHDINbtBPgIN-36" target="OEueLyYYsHDINbtBPgIN-36">
          <mxGeometry relative="1" as="geometry">
            <mxPoint x="50" y="3182.3529411764707" as="targetPoint" />
            <Array as="points">
              <mxPoint x="169" y="3130" />
              <mxPoint x="20" y="3130" />
            </Array>
          </mxGeometry>
        </mxCell>
        <mxCell id="OEueLyYYsHDINbtBPgIN-41" style="edgeStyle=orthogonalEdgeStyle;rounded=0;orthogonalLoop=1;jettySize=auto;html=1;fillColor=#d5e8d4;strokeColor=#82b366;entryX=0;entryY=0.5;entryDx=0;entryDy=0;" edge="1" parent="WIyWlLk6GJQsqaUBKTNV-1" source="OEueLyYYsHDINbtBPgIN-36" target="OEueLyYYsHDINbtBPgIN-43">
          <mxGeometry relative="1" as="geometry">
            <mxPoint x="490" y="2990" as="targetPoint" />
          </mxGeometry>
        </mxCell>
        <mxCell id="OEueLyYYsHDINbtBPgIN-36" value="Se realiza la revisión de los hallazgos del auditor" style="rhombus;whiteSpace=wrap;html=1;" vertex="1" parent="WIyWlLk6GJQsqaUBKTNV-1">
          <mxGeometry x="20" y="2940" width="298" height="100" as="geometry" />
        </mxCell>
        <mxCell id="OEueLyYYsHDINbtBPgIN-39" value="Si se rechazan, se le amplía 10 días hábiles al cliente para subir nuevamente los documentos, máximo de 3 intentos" style="text;html=1;strokeColor=none;fillColor=none;align=center;verticalAlign=middle;whiteSpace=wrap;rounded=0;" vertex="1" parent="WIyWlLk6GJQsqaUBKTNV-1">
          <mxGeometry x="-4" y="3140" width="230" height="30" as="geometry" />
        </mxCell>
        <mxCell id="OEueLyYYsHDINbtBPgIN-42" value="Se aceptan los documentos" style="text;html=1;strokeColor=none;fillColor=none;align=center;verticalAlign=middle;whiteSpace=wrap;rounded=0;" vertex="1" parent="WIyWlLk6GJQsqaUBKTNV-1">
          <mxGeometry x="288" y="2960" width="170" height="30" as="geometry" />
        </mxCell>
        <mxCell id="OEueLyYYsHDINbtBPgIN-47" style="edgeStyle=orthogonalEdgeStyle;rounded=0;orthogonalLoop=1;jettySize=auto;html=1;entryX=0.5;entryY=0;entryDx=0;entryDy=0;" edge="1" parent="WIyWlLk6GJQsqaUBKTNV-1" source="OEueLyYYsHDINbtBPgIN-43" target="OEueLyYYsHDINbtBPgIN-46">
          <mxGeometry relative="1" as="geometry" />
        </mxCell>
        <mxCell id="OEueLyYYsHDINbtBPgIN-43" value="Notificar al cliente que su proceso pasa al comité de dictamen" style="rounded=1;whiteSpace=wrap;html=1;" vertex="1" parent="WIyWlLk6GJQsqaUBKTNV-1">
          <mxGeometry x="460" y="2960" width="200" height="60" as="geometry" />
        </mxCell>
        <mxCell id="OEueLyYYsHDINbtBPgIN-45" value="Si no se detectan No conformidades" style="text;html=1;strokeColor=none;fillColor=none;align=center;verticalAlign=middle;whiteSpace=wrap;rounded=0;" vertex="1" parent="WIyWlLk6GJQsqaUBKTNV-1">
          <mxGeometry x="560" y="2880" width="200" height="30" as="geometry" />
        </mxCell>
        <mxCell id="OEueLyYYsHDINbtBPgIN-49" style="edgeStyle=orthogonalEdgeStyle;rounded=0;orthogonalLoop=1;jettySize=auto;html=1;entryX=0.5;entryY=0;entryDx=0;entryDy=0;" edge="1" parent="WIyWlLk6GJQsqaUBKTNV-1" source="OEueLyYYsHDINbtBPgIN-46" target="OEueLyYYsHDINbtBPgIN-48">
          <mxGeometry relative="1" as="geometry" />
        </mxCell>
        <mxCell id="OEueLyYYsHDINbtBPgIN-46" value="Enviar a Compecer expediente de la empresa para la realización del comité de dictamen" style="rounded=1;whiteSpace=wrap;html=1;fillColor=#f5f5f5;strokeColor=#666666;fontColor=#333333;" vertex="1" parent="WIyWlLk6GJQsqaUBKTNV-1">
          <mxGeometry x="460" y="3090" width="200" height="60" as="geometry" />
        </mxCell>
        <mxCell id="OEueLyYYsHDINbtBPgIN-51" style="edgeStyle=orthogonalEdgeStyle;rounded=0;orthogonalLoop=1;jettySize=auto;html=1;entryX=0.5;entryY=0;entryDx=0;entryDy=0;fillColor=#d5e8d4;strokeColor=#82b366;" edge="1" parent="WIyWlLk6GJQsqaUBKTNV-1" source="OEueLyYYsHDINbtBPgIN-48" target="OEueLyYYsHDINbtBPgIN-50">
          <mxGeometry relative="1" as="geometry" />
        </mxCell>
        <mxCell id="OEueLyYYsHDINbtBPgIN-54" style="edgeStyle=orthogonalEdgeStyle;rounded=0;orthogonalLoop=1;jettySize=auto;html=1;exitX=0;exitY=0.5;exitDx=0;exitDy=0;fillColor=#f8cecc;strokeColor=#b85450;" edge="1" parent="WIyWlLk6GJQsqaUBKTNV-1" source="OEueLyYYsHDINbtBPgIN-48" target="OEueLyYYsHDINbtBPgIN-53">
          <mxGeometry relative="1" as="geometry" />
        </mxCell>
        <mxCell id="OEueLyYYsHDINbtBPgIN-48" value="Se convoca al comité de dictamen y se crea el acta de dictamen" style="rhombus;whiteSpace=wrap;html=1;fillColor=#f5f5f5;fontColor=#333333;strokeColor=#666666;" vertex="1" parent="WIyWlLk6GJQsqaUBKTNV-1">
          <mxGeometry x="470" y="3210" width="180" height="140" as="geometry" />
        </mxCell>
        <mxCell id="OEueLyYYsHDINbtBPgIN-63" style="edgeStyle=orthogonalEdgeStyle;rounded=0;orthogonalLoop=1;jettySize=auto;html=1;entryX=1;entryY=0.5;entryDx=0;entryDy=0;" edge="1" parent="WIyWlLk6GJQsqaUBKTNV-1" source="OEueLyYYsHDINbtBPgIN-50" target="OEueLyYYsHDINbtBPgIN-62">
          <mxGeometry relative="1" as="geometry">
            <Array as="points">
              <mxPoint x="560" y="3530" />
            </Array>
          </mxGeometry>
        </mxCell>
        <mxCell id="OEueLyYYsHDINbtBPgIN-50" value="Si es certificación inicial o recertificación: Se emite el certificado.&lt;br&gt;Si es vigilancia: Se emite carta continuación" style="rounded=1;whiteSpace=wrap;html=1;fillColor=#f5f5f5;fontColor=#333333;strokeColor=#666666;" vertex="1" parent="WIyWlLk6GJQsqaUBKTNV-1">
          <mxGeometry x="470" y="3380" width="180" height="100" as="geometry" />
        </mxCell>
        <mxCell id="OEueLyYYsHDINbtBPgIN-52" value="Si se acepta" style="text;html=1;strokeColor=none;fillColor=none;align=center;verticalAlign=middle;whiteSpace=wrap;rounded=0;" vertex="1" parent="WIyWlLk6GJQsqaUBKTNV-1">
          <mxGeometry x="555" y="3350" width="90" height="30" as="geometry" />
        </mxCell>
        <mxCell id="OEueLyYYsHDINbtBPgIN-58" style="edgeStyle=orthogonalEdgeStyle;rounded=0;orthogonalLoop=1;jettySize=auto;html=1;entryX=1;entryY=0.5;entryDx=0;entryDy=0;fillColor=#d5e8d4;strokeColor=#82b366;exitX=0;exitY=0.5;exitDx=0;exitDy=0;" edge="1" parent="WIyWlLk6GJQsqaUBKTNV-1" source="OEueLyYYsHDINbtBPgIN-53" target="OEueLyYYsHDINbtBPgIN-57">
          <mxGeometry relative="1" as="geometry">
            <mxPoint x="210" y="3320" as="sourcePoint" />
            <Array as="points">
              <mxPoint x="140" y="3280" />
              <mxPoint x="140" y="3280" />
            </Array>
          </mxGeometry>
        </mxCell>
        <mxCell id="OEueLyYYsHDINbtBPgIN-66" style="edgeStyle=orthogonalEdgeStyle;rounded=0;orthogonalLoop=1;jettySize=auto;html=1;entryX=0.5;entryY=0;entryDx=0;entryDy=0;fillColor=#f8cecc;strokeColor=#b85450;" edge="1" parent="WIyWlLk6GJQsqaUBKTNV-1" source="OEueLyYYsHDINbtBPgIN-53" target="OEueLyYYsHDINbtBPgIN-62">
          <mxGeometry relative="1" as="geometry" />
        </mxCell>
        <mxCell id="OEueLyYYsHDINbtBPgIN-53" value="El cliente puede apelar la decisión" style="rhombus;whiteSpace=wrap;html=1;fillColor=#f5f5f5;fontColor=#333333;strokeColor=#666666;" vertex="1" parent="WIyWlLk6GJQsqaUBKTNV-1">
          <mxGeometry x="171" y="3230" width="206" height="100" as="geometry" />
        </mxCell>
        <mxCell id="OEueLyYYsHDINbtBPgIN-55" value="Si se rechaza" style="text;html=1;strokeColor=none;fillColor=none;align=center;verticalAlign=middle;whiteSpace=wrap;rounded=0;" vertex="1" parent="WIyWlLk6GJQsqaUBKTNV-1">
          <mxGeometry x="385" y="3258" width="90" height="30" as="geometry" />
        </mxCell>
        <mxCell id="OEueLyYYsHDINbtBPgIN-60" style="edgeStyle=orthogonalEdgeStyle;rounded=0;orthogonalLoop=1;jettySize=auto;html=1;entryX=0;entryY=0.5;entryDx=0;entryDy=0;fillColor=#d5e8d4;strokeColor=#82b366;exitX=0.5;exitY=1;exitDx=0;exitDy=0;" edge="1" parent="WIyWlLk6GJQsqaUBKTNV-1" source="OEueLyYYsHDINbtBPgIN-57" target="OEueLyYYsHDINbtBPgIN-50">
          <mxGeometry relative="1" as="geometry">
            <Array as="points">
              <mxPoint x="10" y="3430" />
            </Array>
          </mxGeometry>
        </mxCell>
        <mxCell id="OEueLyYYsHDINbtBPgIN-64" style="edgeStyle=orthogonalEdgeStyle;rounded=0;orthogonalLoop=1;jettySize=auto;html=1;entryX=0;entryY=0.5;entryDx=0;entryDy=0;fillColor=#f8cecc;strokeColor=#b85450;" edge="1" parent="WIyWlLk6GJQsqaUBKTNV-1" source="OEueLyYYsHDINbtBPgIN-57" target="OEueLyYYsHDINbtBPgIN-62">
          <mxGeometry relative="1" as="geometry">
            <Array as="points">
              <mxPoint x="-50" y="3280" />
              <mxPoint x="-50" y="3530" />
            </Array>
          </mxGeometry>
        </mxCell>
        <mxCell id="OEueLyYYsHDINbtBPgIN-57" value="Se decide apelación" style="rhombus;whiteSpace=wrap;html=1;fillColor=#f5f5f5;fontColor=#333333;strokeColor=#666666;" vertex="1" parent="WIyWlLk6GJQsqaUBKTNV-1">
          <mxGeometry x="-30" y="3240" width="80" height="80" as="geometry" />
        </mxCell>
        <mxCell id="OEueLyYYsHDINbtBPgIN-59" value="El cliente envía apelación a Compecer" style="text;html=1;strokeColor=none;fillColor=none;align=center;verticalAlign=middle;whiteSpace=wrap;rounded=0;" vertex="1" parent="WIyWlLk6GJQsqaUBKTNV-1">
          <mxGeometry x="50" y="3246" width="127" height="30" as="geometry" />
        </mxCell>
        <mxCell id="OEueLyYYsHDINbtBPgIN-61" value="Si se acepta" style="text;html=1;strokeColor=none;fillColor=none;align=center;verticalAlign=middle;whiteSpace=wrap;rounded=0;" vertex="1" parent="WIyWlLk6GJQsqaUBKTNV-1">
          <mxGeometry y="3330" width="100" height="30" as="geometry" />
        </mxCell>
        <mxCell id="OEueLyYYsHDINbtBPgIN-62" value="&lt;h2&gt;Se termina el proceso&lt;/h2&gt;" style="ellipse;whiteSpace=wrap;html=1;aspect=fixed;fillColor=#f5f5f5;fontColor=#333333;strokeColor=#666666;" vertex="1" parent="WIyWlLk6GJQsqaUBKTNV-1">
          <mxGeometry x="80" y="3480" width="100" height="100" as="geometry" />
        </mxCell>
        <mxCell id="OEueLyYYsHDINbtBPgIN-65" value="Si se rechaza" style="text;html=1;strokeColor=none;fillColor=none;align=center;verticalAlign=middle;whiteSpace=wrap;rounded=0;" vertex="1" parent="WIyWlLk6GJQsqaUBKTNV-1">
          <mxGeometry x="-140" y="3290" width="100" height="30" as="geometry" />
        </mxCell>
        <mxCell id="OEueLyYYsHDINbtBPgIN-67" value="El cliente no apela la decisión" style="text;html=1;strokeColor=none;fillColor=none;align=center;verticalAlign=middle;whiteSpace=wrap;rounded=0;" vertex="1" parent="WIyWlLk6GJQsqaUBKTNV-1">
          <mxGeometry x="152" y="3373" width="118" height="30" as="geometry" />
        </mxCell>
      </root>
    </mxGraphModel>
  </diagram>
</mxfile>
